<?xml version="1.0" encoding="UTF-8"?>
<!DOCTYPE svg PUBLIC "-//W3C//DTD SVG 1.1//EN" "http://www.w3.org/Graphics/SVG/1.1/DTD/svg11.dtd">
<!-- Creator: CorelDRAW 2018 (64-Bit) -->
<svg xmlns="http://www.w3.org/2000/svg" xml:space="preserve" width="0.279984in" height="0.29252in" version="1.1" style="shape-rendering:geometricPrecision; text-rendering:geometricPrecision; image-rendering:optimizeQuality; fill-rule:evenodd; clip-rule:evenodd"
viewBox="0 0 279.98 292.52"
 xmlns:xlink="http://www.w3.org/1999/xlink">
 <defs>
  <style type="text/css">
   <![CDATA[
    .fil0 {fill:black}
   ]]>
  </style>
 </defs>
 <g id="Layer_x0020_1">
  <metadata id="CorelCorpID_0Corel-Layer"/>
  <path class="fil0" d="M149.27 70.01c5.45,2.7 9.61,7.55 11.44,13.38l96.93 0c12.28,0 22.34,10.06 22.34,22.34l0 148.68c0,14.51 -11.38,22.33 -24.91,22.33l0 10.84c0,6.57 -10,6.57 -10,0l0 -10.84 -210.18 0 0 10.84c0,6.57 -10,6.57 -10,0l0 -10.84c-13.53,0 -24.9,-7.83 -24.9,-22.33l0 -148.68c0,-12.29 10.05,-22.34 22.33,-22.34l95.57 0c1.85,-5.89 6.06,-10.77 11.58,-13.46l-20.78 -36c-1.69,-2.94 -0.68,-6.72 2.28,-8.41 2.94,-1.69 6.72,-0.68 8.41,2.28l19.82 34.34 81.26 -60.91c2.72,-2.04 6.59,-1.49 8.63,1.23 2.04,2.72 1.48,6.59 -1.24,8.63l-78.59 58.91zm60.5 144.15c1.41,0 2.54,1.13 2.54,2.54 0,1.4 -1.13,2.54 -2.54,2.54 -1.4,0 -2.54,-1.13 -2.54,-2.54 0,-1.4 1.14,-2.54 2.54,-2.54zm0 27.88c1.41,0 2.54,1.13 2.54,2.54 0,1.4 -1.13,2.54 -2.54,2.54 -1.4,0 -2.54,-1.13 -2.54,-2.54 0,-1.4 1.14,-2.54 2.54,-2.54zm6.08 0c1.41,0 2.54,1.13 2.54,2.54 0,1.4 -1.13,2.54 -2.54,2.54 -1.4,0 -2.54,-1.13 -2.54,-2.54 0,-1.4 1.14,-2.54 2.54,-2.54zm6.09 0c1.4,0 2.54,1.13 2.54,2.54 0,1.4 -1.13,2.54 -2.54,2.54 -1.4,0 -2.54,-1.13 -2.54,-2.54 0,-1.4 1.14,-2.54 2.54,-2.54zm6.08 0c1.4,0 2.54,1.13 2.54,2.54 0,1.4 -1.13,2.54 -2.54,2.54 -1.4,0 -2.54,-1.13 -2.54,-2.54 0,-1.4 1.13,-2.54 2.54,-2.54zm6.08 0c1.4,0 2.54,1.13 2.54,2.54 0,1.4 -1.13,2.54 -2.54,2.54 -1.4,0 -2.53,-1.13 -2.53,-2.54 0,-1.4 1.13,-2.54 2.53,-2.54zm6.08 0c1.4,0 2.54,1.13 2.54,2.54 0,1.4 -1.13,2.54 -2.54,2.54 -1.4,0 -2.53,-1.13 -2.53,-2.54 0,-1.4 1.13,-2.54 2.53,-2.54zm-30.42 -5.57c1.41,0 2.54,1.13 2.54,2.54 0,1.4 -1.13,2.53 -2.54,2.53 -1.4,0 -2.54,-1.13 -2.54,-2.53 0,-1.4 1.14,-2.54 2.54,-2.54zm6.08 0c1.41,0 2.54,1.13 2.54,2.54 0,1.4 -1.13,2.53 -2.54,2.53 -1.4,0 -2.54,-1.13 -2.54,-2.53 0,-1.4 1.14,-2.54 2.54,-2.54zm6.09 0c1.4,0 2.54,1.13 2.54,2.54 0,1.4 -1.13,2.53 -2.54,2.53 -1.4,0 -2.54,-1.13 -2.54,-2.53 0,-1.4 1.14,-2.54 2.54,-2.54zm6.08 0c1.4,0 2.54,1.13 2.54,2.54 0,1.4 -1.13,2.53 -2.54,2.53 -1.4,0 -2.54,-1.13 -2.54,-2.53 0,-1.4 1.13,-2.54 2.54,-2.54zm6.08 0c1.4,0 2.54,1.13 2.54,2.54 0,1.4 -1.13,2.53 -2.54,2.53 -1.4,0 -2.53,-1.13 -2.53,-2.53 0,-1.4 1.13,-2.54 2.53,-2.54zm6.08 0c1.4,0 2.54,1.13 2.54,2.54 0,1.4 -1.13,2.53 -2.54,2.53 -1.4,0 -2.53,-1.13 -2.53,-2.53 0,-1.4 1.13,-2.54 2.53,-2.54zm-30.42 -5.57c1.41,0 2.54,1.13 2.54,2.53 0,1.4 -1.13,2.54 -2.54,2.54 -1.4,0 -2.54,-1.13 -2.54,-2.54 0,-1.4 1.14,-2.53 2.54,-2.53zm6.08 0c1.41,0 2.54,1.13 2.54,2.53 0,1.4 -1.13,2.54 -2.54,2.54 -1.4,0 -2.54,-1.13 -2.54,-2.54 0,-1.4 1.14,-2.53 2.54,-2.53zm6.09 0c1.4,0 2.54,1.13 2.54,2.53 0,1.4 -1.13,2.54 -2.54,2.54 -1.4,0 -2.54,-1.13 -2.54,-2.54 0,-1.4 1.14,-2.53 2.54,-2.53zm6.08 0c1.4,0 2.54,1.13 2.54,2.53 0,1.4 -1.13,2.54 -2.54,2.54 -1.4,0 -2.54,-1.13 -2.54,-2.54 0,-1.4 1.13,-2.53 2.54,-2.53zm6.08 0c1.4,0 2.54,1.13 2.54,2.53 0,1.4 -1.13,2.54 -2.54,2.54 -1.4,0 -2.53,-1.13 -2.53,-2.54 0,-1.4 1.13,-2.53 2.53,-2.53zm6.08 0c1.4,0 2.54,1.13 2.54,2.53 0,1.4 -1.13,2.54 -2.54,2.54 -1.4,0 -2.53,-1.13 -2.53,-2.54 0,-1.4 1.13,-2.53 2.53,-2.53zm-30.42 -5.58c1.41,0 2.54,1.13 2.54,2.54 0,1.4 -1.13,2.53 -2.54,2.53 -1.4,0 -2.54,-1.13 -2.54,-2.53 0,-1.4 1.14,-2.54 2.54,-2.54zm6.08 0c1.41,0 2.54,1.13 2.54,2.54 0,1.4 -1.13,2.53 -2.54,2.53 -1.4,0 -2.54,-1.13 -2.54,-2.53 0,-1.4 1.14,-2.54 2.54,-2.54zm6.09 0c1.4,0 2.54,1.13 2.54,2.54 0,1.4 -1.13,2.53 -2.54,2.53 -1.4,0 -2.54,-1.13 -2.54,-2.53 0,-1.4 1.14,-2.54 2.54,-2.54zm6.08 0c1.4,0 2.54,1.13 2.54,2.54 0,1.4 -1.13,2.53 -2.54,2.53 -1.4,0 -2.54,-1.13 -2.54,-2.53 0,-1.4 1.13,-2.54 2.54,-2.54zm6.08 0c1.4,0 2.54,1.13 2.54,2.54 0,1.4 -1.13,2.53 -2.54,2.53 -1.4,0 -2.53,-1.13 -2.53,-2.53 0,-1.4 1.13,-2.54 2.53,-2.54zm6.08 0c1.4,0 2.54,1.13 2.54,2.54 0,1.4 -1.13,2.53 -2.54,2.53 -1.4,0 -2.53,-1.13 -2.53,-2.53 0,-1.4 1.13,-2.54 2.53,-2.54zm-30.42 -5.57c1.41,0 2.54,1.13 2.54,2.53 0,1.4 -1.13,2.54 -2.54,2.54 -1.4,0 -2.54,-1.13 -2.54,-2.54 0,-1.4 1.14,-2.53 2.54,-2.53zm6.08 0c1.41,0 2.54,1.13 2.54,2.53 0,1.4 -1.13,2.54 -2.54,2.54 -1.4,0 -2.54,-1.13 -2.54,-2.54 0,-1.4 1.14,-2.53 2.54,-2.53zm6.09 0c1.4,0 2.54,1.13 2.54,2.53 0,1.4 -1.13,2.54 -2.54,2.54 -1.4,0 -2.54,-1.13 -2.54,-2.54 0,-1.4 1.14,-2.53 2.54,-2.53zm6.08 0c1.4,0 2.54,1.13 2.54,2.53 0,1.4 -1.13,2.54 -2.54,2.54 -1.4,0 -2.54,-1.13 -2.54,-2.54 0,-1.4 1.13,-2.53 2.54,-2.53zm6.08 0c1.4,0 2.54,1.13 2.54,2.53 0,1.4 -1.13,2.54 -2.54,2.54 -1.4,0 -2.53,-1.13 -2.53,-2.54 0,-1.4 1.13,-2.53 2.53,-2.53zm-18.25 -5.58c1.41,0 2.54,1.13 2.54,2.54 0,1.4 -1.13,2.54 -2.54,2.54 -1.4,0 -2.54,-1.13 -2.54,-2.54 0,-1.4 1.14,-2.54 2.54,-2.54zm6.09 0c1.4,0 2.54,1.13 2.54,2.54 0,1.4 -1.13,2.54 -2.54,2.54 -1.4,0 -2.54,-1.13 -2.54,-2.54 0,-1.4 1.14,-2.54 2.54,-2.54zm6.08 0c1.4,0 2.54,1.13 2.54,2.54 0,1.4 -1.13,2.54 -2.54,2.54 -1.4,0 -2.54,-1.13 -2.54,-2.54 0,-1.4 1.13,-2.54 2.54,-2.54zm6.08 0c1.4,0 2.54,1.13 2.54,2.54 0,1.4 -1.13,2.54 -2.54,2.54 -1.4,0 -2.53,-1.13 -2.53,-2.54 0,-1.4 1.13,-2.54 2.53,-2.54zm6.08 0c1.4,0 2.54,1.13 2.54,2.54 0,1.4 -1.13,2.54 -2.54,2.54 -1.4,0 -2.53,-1.13 -2.53,-2.54 0,-1.4 1.13,-2.54 2.53,-2.54zm0 5.58c1.4,0 2.54,1.13 2.54,2.53 0,1.4 -1.13,2.54 -2.54,2.54 -1.4,0 -2.53,-1.13 -2.53,-2.54 0,-1.4 1.13,-2.53 2.53,-2.53zm-206.93 -78.52c0,4.37 -6.64,4.37 -6.64,0 -0.02,-6.96 -1.06,-22.11 2.76,-27.04 4.07,-5.26 15.63,-4.15 22.16,-4.29 4.37,-0.08 4.49,6.56 0.13,6.64 -3.59,0.07 -15.47,-0.31 -17.03,1.71 -2.02,2.61 -1.39,18.08 -1.38,22.98zm178.67 27.82c8.11,-8.11 21.25,-8.11 29.35,0 8.11,8.11 8.11,21.24 0,29.35 -8.11,8.11 -21.25,8.11 -29.35,0 -8.11,-8.1 -8.11,-21.24 0,-29.35zm1.37 17.79c-4.09,0 -4.09,-6.23 0,-6.23l26.61 0c4.09,0 4.09,6.23 0,6.23l-26.61 0zm13.3 -72.2c11.46,0 20.76,9.29 20.76,20.75 0,11.46 -9.29,20.76 -20.76,20.76 -11.46,0 -20.76,-9.29 -20.76,-20.76 0,-11.46 9.29,-20.75 20.76,-20.75zm-11.61 13.55c-2.89,-2.89 1.51,-7.3 4.41,-4.4l18.81 18.81c2.55,4.04 -1.91,6.91 -4.41,4.41l-18.81 -18.81zm-181.8 -24.25l121.02 0c8.61,0 15.65,7.04 15.65,15.65l0 121.02c0,8.61 -7.04,15.65 -15.65,15.65l-121.02 0c-8.61,0 -15.65,-7.04 -15.65,-15.65l0 -121.02c0,-8.61 7.04,-15.65 15.65,-15.65zm0 -8.75l121.02 0c13.42,0 24.4,10.98 24.4,24.4l0 121.02c0,13.43 -10.98,24.4 -24.4,24.4l-121.02 0c-13.42,0 -24.4,-10.98 -24.4,-24.4l0 -121.02c0,-13.42 10.98,-24.4 24.4,-24.4z"/>
 </g>
</svg>
